<svg viewBox="0 0 27 27" fill="none" xmlns="http://www.w3.org/2000/svg">
<path d="M13.5 11.9813C12.2775 9.3066 8.9475 4.32004 5.85 1.86472C2.8875 -0.497775 1.755 -0.0843378 1.0125 0.286912C0.1575 0.725662 0 2.21066 0 3.07973C0 3.94879 0.4275 10.2347 0.705 11.281C1.62 14.7403 4.8825 15.9132 7.8825 15.5419C8.0325 15.5166 8.19 15.4913 8.3475 15.4744C8.19 15.4997 8.04 15.525 7.8825 15.5419C3.48 16.276 -0.4275 18.0816 4.7025 24.5025C10.3425 31.0754 12.4275 23.0935 13.5 19.0519C14.5725 23.0935 15.81 30.7885 22.2 24.5025C27 19.0519 23.52 16.276 19.1175 15.5419C18.96 15.525 18.8025 15.4997 18.6525 15.4744C18.81 15.4997 18.9675 15.5166 19.1175 15.5419C22.1175 15.9216 25.38 14.7488 26.295 11.281C26.5725 10.2347 27 3.95722 27 3.07973C27 2.20222 26.8425 0.725662 25.9875 0.286912C25.245 -0.0927753 24.1125 -0.497775 21.15 1.85629C18.0525 4.3116 14.7225 9.29816 13.5 11.9728V11.9813Z" fill="currentColor"/>
</svg>
