<svg viewBox="0 0 30 25.5" fill="none" xmlns="http://www.w3.org/2000/svg">
<path d="M22.5 0H7.5C3 0 0 2.25 0 7.5V18C0 23.25 3 25.5 7.5 25.5H22.5C27 25.5 30 23.25 30 18V7.5C30 2.25 27 0 22.5 0ZM23.205 9.135L18.51 12.885C17.52 13.68 16.26 14.07 15 14.07C13.74 14.07 12.465 13.68 11.49 12.885L6.795 9.135C6.315 8.745 6.24 8.025 6.615 7.545C7.005 7.065 7.71 6.975 8.19 7.365L12.885 11.115C14.025 12.03 15.96 12.03 17.1 11.115L21.795 7.365C22.275 6.975 22.995 7.05 23.37 7.545C23.76 8.025 23.685 8.745 23.205 9.135Z" fill="currentColor"/>
</svg>
