<svg viewBox="0 0 25 27" fill="none" xmlns="http://www.w3.org/2000/svg">
<g clip-path="url(#clip0_4118_145)">
<path d="M12.5 2.43105C15.8398 2.43105 16.2354 2.44687 17.5488 2.51016C18.7695 2.56816 19.4287 2.78965 19.8682 2.97422C20.4492 3.2168 20.8691 3.51211 21.3037 3.98145C21.7432 4.45605 22.0117 4.9043 22.2363 5.53184C22.4072 6.00645 22.6123 6.72363 22.666 8.03672C22.7246 9.46055 22.7393 9.8877 22.7393 13.4895C22.7393 17.0965 22.7246 17.5236 22.666 18.9422C22.6123 20.2605 22.4072 20.9725 22.2363 21.4471C22.0117 22.0746 21.7383 22.5281 21.3037 22.9975C20.8643 23.4721 20.4492 23.7621 19.8682 24.0047C19.4287 24.1893 18.7646 24.4107 17.5488 24.4688C16.2305 24.532 15.835 24.5479 12.5 24.5479C9.16016 24.5479 8.76465 24.532 7.45117 24.4688C6.23047 24.4107 5.57129 24.1893 5.13184 24.0047C4.55078 23.7621 4.13086 23.4668 3.69629 22.9975C3.25684 22.5229 2.98828 22.0746 2.76367 21.4471C2.59277 20.9725 2.3877 20.2553 2.33398 18.9422C2.27539 17.5184 2.26074 17.0912 2.26074 13.4895C2.26074 9.88242 2.27539 9.45527 2.33398 8.03672C2.3877 6.71836 2.59277 6.00645 2.76367 5.53184C2.98828 4.9043 3.26172 4.45078 3.69629 3.98145C4.13574 3.50684 4.55078 3.2168 5.13184 2.97422C5.57129 2.78965 6.23535 2.56816 7.45117 2.51016C8.76465 2.44687 9.16016 2.43105 12.5 2.43105ZM12.5 0C9.10645 0 8.68164 0.0158203 7.34863 0.0791016C6.02051 0.142383 5.10742 0.374414 4.31641 0.706641C3.49121 1.05469 2.79297 1.51348 2.09961 2.26758C1.40137 3.01641 0.976562 3.77051 0.654297 4.65645C0.34668 5.51602 0.131836 6.49687 0.0732422 7.93125C0.0146484 9.37617 0 9.83496 0 13.5C0 17.165 0.0146484 17.6238 0.0732422 19.0635C0.131836 20.4979 0.34668 21.484 0.654297 22.3383C0.976562 23.2295 1.40137 23.9836 2.09961 24.7324C2.79297 25.4813 3.49121 25.9453 4.31152 26.2881C5.10742 26.6203 6.01562 26.8523 7.34375 26.9156C8.67676 26.9789 9.10156 26.9947 12.4951 26.9947C15.8887 26.9947 16.3135 26.9789 17.6465 26.9156C18.9746 26.8523 19.8877 26.6203 20.6787 26.2881C21.499 25.9453 22.1973 25.4813 22.8906 24.7324C23.584 23.9836 24.0137 23.2295 24.3311 22.3436C24.6387 21.484 24.8535 20.5031 24.9121 19.0688C24.9707 17.6291 24.9854 17.1703 24.9854 13.5053C24.9854 9.84023 24.9707 9.38145 24.9121 7.9418C24.8535 6.50742 24.6387 5.52129 24.3311 4.66699C24.0234 3.77051 23.5986 3.01641 22.9004 2.26758C22.207 1.51875 21.5088 1.05469 20.6885 0.711914C19.8926 0.379687 18.9844 0.147656 17.6562 0.084375C16.3184 0.0158203 15.8936 0 12.5 0Z" fill="currentColor"/>
<path d="M12.5 6.56543C8.95508 6.56543 6.0791 9.67148 6.0791 13.5C6.0791 17.3285 8.95508 20.4346 12.5 20.4346C16.0449 20.4346 18.9209 17.3285 18.9209 13.5C18.9209 9.67148 16.0449 6.56543 12.5 6.56543ZM12.5 17.9982C10.2002 17.9982 8.33496 15.9838 8.33496 13.5C8.33496 11.0162 10.2002 9.00176 12.5 9.00176C14.7998 9.00176 16.665 11.0162 16.665 13.5C16.665 15.9838 14.7998 17.9982 12.5 17.9982Z" fill="currentColor"/>
<path d="M20.6738 6.29116C20.6738 7.18764 20 7.91011 19.1748 7.91011C18.3447 7.91011 17.6758 7.18237 17.6758 6.29116C17.6758 5.39467 18.3496 4.67221 19.1748 4.67221C20 4.67221 20.6738 5.39995 20.6738 6.29116Z" fill="currentColor"/>
</g>
<defs>
<clipPath id="clip0_4118_145">
<rect width="25" height="27" fill="white"/>
</clipPath>
</defs>
</svg>
